<?xml version="1.0" standalone="no"?>
<!DOCTYPE svg PUBLIC "-//W3C//DTD SVG 20010904//EN"
 "http://www.w3.org/TR/2001/REC-SVG-20010904/DTD/svg10.dtd">
<svg version="1.0" xmlns="http://www.w3.org/2000/svg"
 width="686.000000pt" height="364.000000pt" viewBox="0 0 686.000000 364.000000"
 preserveAspectRatio="xMidYMid meet">

<g transform="translate(0.000000,364.000000) scale(0.100000,-0.100000)"
fill="#000000" stroke="none">
<path d="M561 3379 c-104 -18 -284 -119 -337 -190 -37 -49 -83 -145 -94 -196
-17 -76 59 -315 121 -382 23 -24 152 -109 188 -123 14 -6 58 -16 96 -22 50 -9
69 -17 68 -27 -1 -8 -8 -45 -17 -84 -18 -80 -21 -243 -5 -265 8 -11 9 -7 5 19
-3 18 -1 85 4 148 13 150 39 203 98 203 9 0 44 13 77 29 l60 29 -60 3 c-33 1
-85 1 -115 0 -61 -3 -136 25 -219 81 -77 52 -101 80 -147 170 -40 79 -44 95
-44 158 0 58 5 81 29 129 25 49 46 70 123 129 114 87 174 106 343 106 152 0
298 -43 425 -124 49 -31 117 -53 213 -70 34 -6 88 -20 120 -31 31 -10 73 -19
92 -19 28 0 44 -9 82 -46 l48 -45 8 -537 c8 -585 1 -1209 -14 -1257 -5 -18
-31 -48 -64 -74 -87 -70 -83 -104 13 -115 80 -9 435 -5 470 6 17 5 37 18 42
28 9 16 5 22 -17 36 -118 72 -132 84 -142 121 -7 26 -9 165 -4 424 l6 385 116
10 c73 6 130 17 153 28 99 48 171 149 209 293 31 114 38 362 14 469 -35 159
-101 261 -198 309 -82 39 -172 47 -462 39 -172 -4 -279 -3 -317 4 -88 17 -338
109 -385 143 -62 44 -117 66 -237 94 -112 26 -238 32 -345 14z m1629 -467 c55
-55 65 -111 65 -367 0 -355 -32 -430 -192 -443 l-63 -5 0 427 0 426 76 0 c75
0 77 -1 114 -38z"/>
<path d="M2638 3134 c-9 -3 -20 -14 -24 -26 -5 -16 8 -33 63 -83 l70 -64 7
-626 c4 -344 4 -751 0 -903 l-7 -277 -68 -66 c-72 -68 -75 -74 -59 -99 8 -13
47 -15 267 -12 142 2 266 5 276 8 30 9 19 28 -52 96 -83 79 -77 34 -72 534 l3
364 29 0 c63 0 124 -43 151 -105 9 -22 14 -129 18 -401 l5 -371 27 -40 c44
-67 80 -78 248 -78 179 0 185 6 87 98 -36 34 -70 72 -76 84 -7 14 -11 126 -11
326 0 405 -7 436 -116 542 l-62 60 45 39 c60 52 98 113 130 211 25 73 27 94
27 245 1 193 -16 265 -84 367 -33 50 -52 67 -113 99 -148 80 -134 77 -427 80
-146 2 -273 1 -282 -2z m563 -201 c65 -39 89 -145 89 -393 -1 -255 -31 -379
-103 -416 -19 -10 -57 -18 -92 -18 l-60 -1 -3 423 -2 422 71 0 c49 0 80 -5
100 -17z"/>
<path d="M4141 3123 c-15 -29 -29 -110 -81 -478 -27 -192 -63 -440 -80 -550
-16 -110 -52 -357 -80 -550 -28 -192 -55 -365 -61 -382 -6 -19 -33 -52 -65
-79 -54 -47 -69 -83 -41 -101 17 -11 354 -13 383 -3 46 18 41 39 -19 95 -33
30 -57 61 -57 72 0 23 38 276 47 311 5 23 8 24 109 20 64 -2 108 -8 115 -15
13 -13 48 -220 49 -287 0 -36 -6 -45 -56 -91 -43 -40 -55 -58 -52 -76 3 -22
10 -25 68 -31 36 -5 147 -6 248 -4 187 4 212 9 212 46 0 20 -30 50 -51 50 -8
0 -30 20 -50 44 -34 43 -37 52 -67 233 -36 213 -85 526 -137 878 -20 132 -55
359 -80 505 -24 146 -47 295 -51 332 -6 63 -8 66 -37 72 -16 3 -58 6 -93 6
-50 0 -65 -4 -73 -17z m143 -963 c46 -281 68 -442 60 -449 -8 -9 -191 -7 -200
2 -4 4 15 160 42 347 27 186 52 334 56 327 3 -7 22 -109 42 -227z"/>
<path d="M4705 3128 c-3 -7 -4 -184 -3 -393 3 -375 3 -380 24 -383 33 -5 50
26 88 153 19 66 57 194 84 285 l49 165 49 3 49 3 0 -898 c0 -494 -3 -905 -8
-913 -4 -9 -27 -31 -52 -50 -53 -42 -85 -94 -68 -111 16 -16 263 -24 416 -14
105 6 119 9 129 28 9 18 6 24 -18 45 -16 13 -46 40 -66 59 l-38 34 0 909 0
910 45 0 44 0 25 -82 c45 -151 124 -422 135 -465 20 -73 83 -80 96 -10 9 48 1
714 -8 724 -5 4 -224 9 -488 11 -383 2 -480 0 -484 -10z"/>
<path d="M6190 3131 c-135 -41 -239 -177 -290 -377 -47 -183 -55 -279 -55
-669 0 -394 7 -496 50 -689 47 -208 140 -350 262 -396 209 -80 398 48 478 325
97 336 105 1075 15 1432 -43 170 -133 293 -261 357 -55 27 -141 34 -199 17z
m132 -178 c44 -51 77 -184 99 -398 16 -154 15 -736 0 -920 -24 -286 -47 -394
-98 -462 -30 -41 -53 -42 -92 -2 -80 80 -111 336 -111 919 0 190 5 397 11 460
18 200 61 370 102 402 28 23 70 23 89 1z"/>
<path d="M656 1977 c-36 -20 -44 -34 -103 -172 -175 -410 -196 -467 -197 -532
-1 -83 14 -98 93 -98 46 1 72 8 121 33 l62 32 81 -50 c84 -52 102 -57 127 -39
13 9 12 10 -3 5 -25 -8 -64 10 -123 55 -60 46 -86 49 -157 12 -70 -36 -141
-38 -168 -4 -10 13 -19 36 -19 51 0 32 39 145 100 295 23 55 60 147 82 205 45
118 62 143 120 183 31 20 53 27 90 27 42 0 59 -7 124 -51 69 -46 75 -49 72
-28 -2 17 -22 35 -68 61 -57 33 -73 38 -130 38 -49 0 -75 -6 -104 -23z"/>
<path d="M575 1142 c-55 -27 -92 -69 -106 -122 -17 -63 -5 -113 38 -160 42
-48 77 -59 208 -67 171 -10 324 43 447 156 52 48 98 114 86 126 -3 3 -40 -9
-84 -26 -133 -53 -240 -37 -408 63 -82 48 -126 56 -181 30z"/>
<path d="M1630 624 c0 -74 4 -143 9 -153 13 -24 148 -116 217 -148 177 -81
313 -73 624 35 240 84 410 77 491 -20 l26 -32 7 66 c4 37 4 104 0 150 -6 79
-9 85 -44 118 -60 58 -175 82 -295 61 -37 -7 -149 -39 -249 -72 -203 -69 -308
-83 -428 -59 -104 20 -269 107 -320 169 -33 40 -38 25 -38 -115z m829 -91 c9
-50 -2 -110 -23 -131 -15 -15 -18 -15 -26 -2 -5 8 -10 20 -10 25 0 6 5 3 10
-5 9 -13 11 -13 20 0 15 23 12 38 -9 45 -33 10 -39 107 -7 127 17 11 38 -16
45 -59z m-101 -5 c2 -15 -2 -36 -7 -47 -7 -13 -8 -22 -1 -26 14 -9 13 -68 -2
-83 -17 -17 -35 -15 -42 4 -5 13 -4 14 7 6 8 -7 17 -9 20 -5 10 10 8 52 -3 73
-7 13 -7 21 0 25 11 7 14 58 3 68 -3 4 -12 2 -20 -5 -11 -8 -12 -7 -7 6 11 28
48 16 52 -16z m-98 -17 c11 -21 13 -122 4 -159 -7 -26 -44 -27 -52 -2 -4 12
-3 13 10 3 18 -15 28 -7 28 23 0 13 -8 24 -20 27 -35 9 -30 127 4 127 9 0 20
-9 26 -19z m-100 -68 c0 -43 3 -89 7 -102 4 -17 2 -22 -6 -20 -14 5 -22 199
-8 199 4 0 7 -35 7 -77z"/>
<path d="M2412 524 c2 -27 8 -48 13 -46 15 3 12 85 -3 90 -10 3 -12 -8 -10
-44z"/>
<path d="M2225 498 c-9 -23 -2 -83 10 -83 14 0 19 75 6 88 -7 7 -12 5 -16 -5z"/>
<path d="M528 693 c-15 -34 -22 -69 -22 -118 -1 -163 59 -189 537 -239 21 -2
56 -13 78 -24 27 -14 36 -15 27 -5 -32 39 -91 55 -247 69 -166 14 -178 16
-286 61 -79 32 -83 39 -84 143 0 45 6 79 19 109 23 50 23 51 9 51 -5 0 -20
-21 -31 -47z"/>
</g>
</svg>
